<svg xmlns="http://www.w3.org/2000/svg" viewBox="0 0 1200 300" width="1200" height="300" role="img" aria-label="Memento Manager">
  <defs>
    <linearGradient id="sky" x1="0" y1="0" x2="0" y2="1">
      <stop offset="0" stop-color="#243b6b"/>
      <stop offset="0.5" stop-color="#5b8cff"/>
      <stop offset="1" stop-color="#ffb27a"/>
    </linearGradient>
    <clipPath id="screen"><rect x="44" y="60" width="168" height="136" rx="9"/></clipPath>
  </defs>

  <rect width="1200" height="300" fill="#0b0e14"/>

  <!-- logo mark -->
  <g transform="translate(56,32) scale(0.92)">
    <rect x="22" y="42" width="212" height="172" rx="22" fill="#141925" stroke="#222a3a" stroke-width="6"/>
    <g clip-path="url(#screen)">
      <rect x="44" y="60" width="168" height="136" fill="url(#sky)"/>
      <circle cx="98" cy="118" r="25" fill="#ffe1a3"/>
      <path d="M44 172 L92 134 L132 164 L172 126 L212 158 L212 196 L44 196 Z" fill="#1b2740"/>
      <path d="M44 196 L84 170 L124 190 L164 168 L212 192 L212 196 Z" fill="#0b0e14"/>
    </g>
    <rect x="44" y="60" width="168" height="136" rx="9" fill="none" stroke="#0b0e14" stroke-width="2"/>
    <circle cx="110" cy="228" r="4.5" fill="#5b8cff"/>
    <circle cx="128" cy="228" r="4" fill="#2f3b57"/>
    <circle cx="146" cy="228" r="4" fill="#2f3b57"/>
  </g>

  <!-- wordmark -->
  <g font-family="'Segoe UI', system-ui, -apple-system, Helvetica, Arial, sans-serif">
    <text x="318" y="136" font-size="74" font-weight="800" fill="#f1f5f9">Memento<tspan fill="#5b8cff"> Manager</tspan></text>
    <text x="322" y="184" font-size="24" font-weight="500" fill="#94a3b8">Revive the discontinued Memento Smart Frame — local, no cloud.</text>
    <text x="322" y="222" font-size="19" font-weight="500" fill="#64748b">Reverse-engineered LAN protocol · Immich sync · emulator &amp; Pi soft-frame · OTA</text>
  </g>
</svg>
