<svg xmlns="http://www.w3.org/2000/svg" viewBox="0 0 1200 300" width="1200" height="300" role="img" aria-label="Slyde">
  <defs>
    <linearGradient id="sky" x1="0" y1="0" x2="0" y2="1">
      <stop offset="0" stop-color="#243b6b"/>
      <stop offset="0.5" stop-color="#5b8cff"/>
      <stop offset="1" stop-color="#ffb27a"/>
    </linearGradient>
    <linearGradient id="ltile" x1="0" y1="0" x2="1" y2="1">
      <stop offset="0" stop-color="#141c2e"/>
      <stop offset="1" stop-color="#0b0e14"/>
    </linearGradient>
    <clipPath id="lphoto"><rect x="74" y="70" width="108" height="92" rx="13"/></clipPath>
  </defs>

  <rect width="1200" height="300" fill="#0b0e14"/>

  <!-- logo mark: a slideshow carousel (prev/next slides behind the current photo) -->
  <g transform="translate(40,34) scale(0.92)">
    <rect x="8" y="8" width="240" height="240" rx="54" fill="url(#ltile)" stroke="#222a3a" stroke-width="2"/>
    <rect x="40" y="84" width="100" height="64" rx="12" fill="#1b2440"/>
    <rect x="116" y="84" width="100" height="64" rx="12" fill="#1b2440"/>
    <rect x="52" y="78" width="152" height="76" rx="13" fill="#243056"/>
    <g clip-path="url(#lphoto)">
      <rect x="74" y="70" width="108" height="92" fill="url(#sky)"/>
      <circle cx="106" cy="112" r="17" fill="#ffe1a3"/>
      <path d="M74 150 L104 122 L128 142 L156 116 L182 138 L182 162 L74 162 Z" fill="#1b2740"/>
      <path d="M74 162 L100 144 L128 158 L156 142 L182 160 L182 162 Z" fill="#0b0e14"/>
    </g>
    <rect x="74" y="70" width="108" height="92" rx="13" fill="none" stroke="#aeb9d6" stroke-width="2.5"/>
    <circle cx="110" cy="186" r="4.5" fill="#36405e"/>
    <circle cx="128" cy="186" r="6" fill="#5b8cff"/>
    <circle cx="146" cy="186" r="4.5" fill="#36405e"/>
  </g>

  <!-- wordmark -->
  <g font-family="'Segoe UI', system-ui, -apple-system, Helvetica, Arial, sans-serif">
    <text x="318" y="128" font-size="96" font-weight="800" fill="#f1f5f9" letter-spacing="-2">Sly<tspan fill="#5b8cff">de</tspan></text>
    <text x="322" y="174" font-size="24" font-weight="500" fill="#94a3b8">Self-hosted photo-frame hub — revive any frame, no cloud.</text>
    <text x="322" y="210" font-size="19" font-weight="500" fill="#64748b">Immich-sourced · reverse-engineered frame protocols · emulator &amp; Pi soft-frame · OTA</text>
  </g>
</svg>
